# xmcd CD database file
# Copyright (C) 1993-1998 Ti Kan
#
# Track frame offsets:
#  150
#  22650
#  46275
#  60675
#  84375
#  102525
#  122687
#  141350
#  166225
#  182025
#
# Disc length: 2742 seconds
#
# Revision: 1
# Processed by: cddbd v1.4b41PL1 Copyright (c) Steve Scherf et al.
# Submitted via: KiC 2.1 - (C) 1996-1998 Alwin Hoogerdijk
#
DISCID=7e0ab40a
DTITLE=Percy Mayfield with the Phillip Walker Blues Band - Hit The Road Again
DYEAR=1900
DGENRE=
TTITLE0=River's Invitation
TTITLE1=Crying About My Baby
TTITLE2=I Dare You Baby
TTITLE3=Baby Please
TTITLE4=The Highway Is Like A Woman
TTITLE5=Get Out And Come In
TTITLE6=I Need Love So Bad
TTITLE7=Two Years Of Torture
TTITLE8=I Wouldn't Do The Same Thing To You
TTITLE9=My Jug And I
EXTD=
EXTT0=
EXTT1=
EXTT2=
EXTT3=
EXTT4=
EXTT5=
EXTT6=
EXTT7=
EXTT8=
EXTT9=
PLAYORDER=
